<svg viewBox="0 0 512 512" xmlns="http://www.w3.org/2000/svg"><g id="Layer_2" data-name="Layer 2"><g id="Layer_1-2" data-name="Layer 1"><g id="_32" data-name="32"><path d="m512 256c0 2.59 0 5.19-.05 7.78h-.07a255 255 0 0 1 -53.88 149.54 258.32 258.32 0 0 1 -20.11 22.85 255.87 255.87 0 0 1 -437.12-160.17h-.49c-.17-5.83-.28-11.64-.28-17.47 0-.84 0-1.69 0-2.53 0-141.38 114.62-256 256-256s256 114.62 256 256z" fill="#f5ab9e"/><circle cx="249" cy="250" fill="#ffba40" r="116"/><circle cx="249" cy="250" fill="#ffcc58" r="98"/><path d="m511.88 263.77a255 255 0 0 1 -53.88 149.55 258.32 258.32 0 0 1 -20.11 22.85c-61.95.12-129.6.43-170.93.63l-39.12.2-.63-10.2-3.92-63.69v-.31l-.79-12.8s1.73-1.6 5.07-4.37 8-6.51 14.15-11a409.06 409.06 0 0 1 100.46-54q9.89-3.63 20.42-6.81c43.07-13.07 93.93-19.67 149.28-10.05z" fill="#f8dfda"/><path d="m376 388.78c-24.61 14.27-70 33-109.07 48-38.56 14.9-70.93 26.22-70.93 26.22l-117-22a255 255 0 0 1 -78.23-165c32.35-1.64 88.61-2 138.14 10.59 7.57 1.91 15 4.13 22.13 6.69a170.57 170.57 0 0 1 27.96 12.72c19.91 11.53 36.94 20.93 52.67 28.59 9.05 4.42 17.68 8.26 26.17 11.59a269.21 269.21 0 0 0 25.71 8.7l3.13.86c23.7 6.38 49 9.59 82.31 11.26 23.53 1.18 17.4 10-2.99 21.78z" fill="#854d34"/><path d="m507.86 302.07a254.76 254.76 0 0 1 -49.86 111.25 258.32 258.32 0 0 1 -20.11 22.85 256.09 256.09 0 0 1 -428.53-111.34c33.41-4.83 98.26-8.83 152.64 20.17a157.77 157.77 0 0 0 59.15 17.61l2.09.19a185.68 185.68 0 0 0 70.32-7.92 152.33 152.33 0 0 0 16.06-6c16.43-7.28 28.08-16.09 33.38-22.88 24.67-31.58 99.79-46.46 164.86-23.93z" fill="#1d2e59"/><path d="m458 413.32a258.32 258.32 0 0 1 -20.11 22.85 256.12 256.12 0 0 1 -395.4-38.92c27.09-4.2 64.05-3.76 101.54 15.75 27.58 14.36 57.11 16.59 83.18 13.8a229.21 229.21 0 0 0 76.46-22.75s28.93-16.78 72.36-15.27c22.86.79 49.74 6.65 78.53 22.7 1.12.64 2.26 1.25 3.44 1.84z" fill="#dd882b"/></g></g></g></svg>